<?xml version="1.0" encoding="UTF-8" standalone="no"?>
<!DOCTYPE svg PUBLIC "-//W3C//DTD SVG 1.1//EN"
 "http://www.w3.org/Graphics/SVG/1.1/DTD/svg11.dtd">
<!-- Generated by graphviz version 12.1.0 (20240811.2233)
 -->
<!-- Title: GO tree Pages: 1 -->
<svg width="348pt" height="710pt"
 viewBox="0.00 0.00 348.38 710.40" xmlns="http://www.w3.org/2000/svg" xmlns:xlink="http://www.w3.org/1999/xlink">
<g id="graph0" class="graph" transform="scale(1 1) rotate(0) translate(4 706.4)">
<title>GO tree</title>
<polygon fill="white" stroke="none" points="-4,4 -4,-706.4 344.38,-706.4 344.38,4 -4,4"/>
<!-- GO:0110165\ncellular anatomical entity -->
<g id="node1" class="node">
<title>GO:0110165\ncellular anatomical entity</title>
<path fill="plum" stroke="mediumseagreen" d="M225.74,-608C225.74,-608 91.47,-608 91.47,-608 85.47,-608 79.47,-602 79.47,-596 79.47,-596 79.47,-578.4 79.47,-578.4 79.47,-572.4 85.47,-566.4 91.47,-566.4 91.47,-566.4 225.74,-566.4 225.74,-566.4 231.74,-566.4 237.74,-572.4 237.74,-578.4 237.74,-578.4 237.74,-596 237.74,-596 237.74,-602 231.74,-608 225.74,-608"/>
<text text-anchor="middle" x="158.61" y="-591.4" font-family="Times,serif" font-size="14.00">GO:0110165</text>
<text text-anchor="middle" x="158.61" y="-574.6" font-family="Times,serif" font-size="14.00">cellular anatomical entity</text>
</g>
<!-- GO:0043226\norganelle -->
<g id="node2" class="node">
<title>GO:0043226\norganelle</title>
<path fill="plum" stroke="mediumseagreen" d="M191.16,-513.6C191.16,-513.6 126.05,-513.6 126.05,-513.6 120.05,-513.6 114.05,-507.6 114.05,-501.6 114.05,-501.6 114.05,-484 114.05,-484 114.05,-478 120.05,-472 126.05,-472 126.05,-472 191.16,-472 191.16,-472 197.16,-472 203.16,-478 203.16,-484 203.16,-484 203.16,-501.6 203.16,-501.6 203.16,-507.6 197.16,-513.6 191.16,-513.6"/>
<text text-anchor="middle" x="158.61" y="-497" font-family="Times,serif" font-size="14.00">GO:0043226</text>
<text text-anchor="middle" x="158.61" y="-480.2" font-family="Times,serif" font-size="14.00">organelle</text>
</g>
<!-- GO:0110165\ncellular anatomical entity&#45;&#45;GO:0043226\norganelle -->
<g id="edge1" class="edge">
<title>GO:0110165\ncellular anatomical entity&#45;&#45;GO:0043226\norganelle</title>
<path fill="none" stroke="#8470ff" d="M158.61,-554.85C158.61,-541.28 158.61,-525.79 158.61,-513.81"/>
<polygon fill="#8470ff" stroke="#8470ff" points="155.11,-554.64 158.61,-564.64 162.11,-554.64 155.11,-554.64"/>
<text text-anchor="middle" x="169.88" y="-535.8" font-family="Times,serif" font-size="14.00">is_a</text>
</g>
<!-- GO:0043229\nintracellular organelle -->
<g id="node7" class="node">
<title>GO:0043229\nintracellular organelle</title>
<path fill="plum" stroke="mediumseagreen" d="M127.21,-419.2C127.21,-419.2 12,-419.2 12,-419.2 6,-419.2 0,-413.2 0,-407.2 0,-407.2 0,-389.6 0,-389.6 0,-383.6 6,-377.6 12,-377.6 12,-377.6 127.21,-377.6 127.21,-377.6 133.21,-377.6 139.21,-383.6 139.21,-389.6 139.21,-389.6 139.21,-407.2 139.21,-407.2 139.21,-413.2 133.21,-419.2 127.21,-419.2"/>
<text text-anchor="middle" x="69.61" y="-402.6" font-family="Times,serif" font-size="14.00">GO:0043229</text>
<text text-anchor="middle" x="69.61" y="-385.8" font-family="Times,serif" font-size="14.00">intracellular organelle</text>
</g>
<!-- GO:0043226\norganelle&#45;&#45;GO:0043229\nintracellular organelle -->
<g id="edge6" class="edge">
<title>GO:0043226\norganelle&#45;&#45;GO:0043229\nintracellular organelle</title>
<path fill="none" stroke="#8470ff" d="M131.54,-463.7C117.77,-449.4 101.35,-432.36 88.88,-419.41"/>
<polygon fill="#8470ff" stroke="#8470ff" points="128.79,-465.89 138.24,-470.66 133.83,-461.03 128.79,-465.89"/>
<text text-anchor="middle" x="133.35" y="-441.4" font-family="Times,serif" font-size="14.00">is_a</text>
</g>
<!-- GO:0043227\nmembrane&#45;bounded organelle -->
<g id="node9" class="node">
<title>GO:0043227\nmembrane&#45;bounded organelle</title>
<path fill="beige" stroke="mediumseagreen" d="M328.38,-419.2C328.38,-419.2 168.83,-419.2 168.83,-419.2 162.83,-419.2 156.83,-413.2 156.83,-407.2 156.83,-407.2 156.83,-389.6 156.83,-389.6 156.83,-383.6 162.83,-377.6 168.83,-377.6 168.83,-377.6 328.38,-377.6 328.38,-377.6 334.38,-377.6 340.38,-383.6 340.38,-389.6 340.38,-389.6 340.38,-407.2 340.38,-407.2 340.38,-413.2 334.38,-419.2 328.38,-419.2"/>
<text text-anchor="middle" x="248.61" y="-402.6" font-family="Times,serif" font-size="14.00">GO:0043227</text>
<text text-anchor="middle" x="248.61" y="-385.8" font-family="Times,serif" font-size="14.00">membrane&#45;bounded organelle</text>
</g>
<!-- GO:0043226\norganelle&#45;&#45;GO:0043227\nmembrane&#45;bounded organelle -->
<g id="edge7" class="edge">
<title>GO:0043226\norganelle&#45;&#45;GO:0043227\nmembrane&#45;bounded organelle</title>
<path fill="none" stroke="#8470ff" d="M185.97,-463.7C199.9,-449.4 216.5,-432.36 229.11,-419.41"/>
<polygon fill="#8470ff" stroke="#8470ff" points="183.66,-461.06 179.19,-470.67 188.67,-465.94 183.66,-461.06"/>
<text text-anchor="middle" x="222.94" y="-441.4" font-family="Times,serif" font-size="14.00">is_a</text>
</g>
<!-- GO:0005575\ncellular_component -->
<g id="node3" class="node">
<title>GO:0005575\ncellular_component</title>
<path fill="plum" stroke="mediumseagreen" d="M210.2,-702.4C210.2,-702.4 107.02,-702.4 107.02,-702.4 101.02,-702.4 95.02,-696.4 95.02,-690.4 95.02,-690.4 95.02,-672.8 95.02,-672.8 95.02,-666.8 101.02,-660.8 107.02,-660.8 107.02,-660.8 210.2,-660.8 210.2,-660.8 216.2,-660.8 222.2,-666.8 222.2,-672.8 222.2,-672.8 222.2,-690.4 222.2,-690.4 222.2,-696.4 216.2,-702.4 210.2,-702.4"/>
<text text-anchor="middle" x="158.61" y="-685.8" font-family="Times,serif" font-size="14.00">GO:0005575</text>
<text text-anchor="middle" x="158.61" y="-669" font-family="Times,serif" font-size="14.00">cellular_component</text>
</g>
<!-- GO:0005575\ncellular_component&#45;&#45;GO:0110165\ncellular anatomical entity -->
<g id="edge2" class="edge">
<title>GO:0005575\ncellular_component&#45;&#45;GO:0110165\ncellular anatomical entity</title>
<path fill="none" stroke="#8470ff" d="M158.61,-649.25C158.61,-635.68 158.61,-620.19 158.61,-608.21"/>
<polygon fill="#8470ff" stroke="#8470ff" points="155.11,-649.04 158.61,-659.04 162.11,-649.04 155.11,-649.04"/>
<text text-anchor="middle" x="169.88" y="-630.2" font-family="Times,serif" font-size="14.00">is_a</text>
</g>
<!-- GO:0000323\nlytic vacuole -->
<g id="node4" class="node">
<title>GO:0000323\nlytic vacuole</title>
<path fill="plum" stroke="mediumseagreen" d="M191.16,-136C191.16,-136 126.05,-136 126.05,-136 120.05,-136 114.05,-130 114.05,-124 114.05,-124 114.05,-106.4 114.05,-106.4 114.05,-100.4 120.05,-94.4 126.05,-94.4 126.05,-94.4 191.16,-94.4 191.16,-94.4 197.16,-94.4 203.16,-100.4 203.16,-106.4 203.16,-106.4 203.16,-124 203.16,-124 203.16,-130 197.16,-136 191.16,-136"/>
<text text-anchor="middle" x="158.61" y="-119.4" font-family="Times,serif" font-size="14.00">GO:0000323</text>
<text text-anchor="middle" x="158.61" y="-102.6" font-family="Times,serif" font-size="14.00">lytic vacuole</text>
</g>
<!-- GO:0005764\nlysosome -->
<g id="node5" class="node">
<title>GO:0005764\nlysosome</title>
<path fill="plum" stroke="mediumseagreen" d="M191.16,-41.6C191.16,-41.6 126.05,-41.6 126.05,-41.6 120.05,-41.6 114.05,-35.6 114.05,-29.6 114.05,-29.6 114.05,-12 114.05,-12 114.05,-6 120.05,0 126.05,0 126.05,0 191.16,0 191.16,0 197.16,0 203.16,-6 203.16,-12 203.16,-12 203.16,-29.6 203.16,-29.6 203.16,-35.6 197.16,-41.6 191.16,-41.6"/>
<text text-anchor="middle" x="158.61" y="-25" font-family="Times,serif" font-size="14.00">GO:0005764</text>
<text text-anchor="middle" x="158.61" y="-8.2" font-family="Times,serif" font-size="14.00">lysosome</text>
</g>
<!-- GO:0000323\nlytic vacuole&#45;&#45;GO:0005764\nlysosome -->
<g id="edge3" class="edge">
<title>GO:0000323\nlytic vacuole&#45;&#45;GO:0005764\nlysosome</title>
<path fill="none" stroke="#8470ff" d="M158.61,-82.85C158.61,-69.28 158.61,-53.79 158.61,-41.81"/>
<polygon fill="#8470ff" stroke="#8470ff" points="155.11,-82.64 158.61,-92.64 162.11,-82.64 155.11,-82.64"/>
<text text-anchor="middle" x="169.88" y="-63.8" font-family="Times,serif" font-size="14.00">is_a</text>
</g>
<!-- GO:0005773\nvacuole -->
<g id="node6" class="node">
<title>GO:0005773\nvacuole</title>
<path fill="plum" stroke="mediumseagreen" d="M191.16,-230.4C191.16,-230.4 126.05,-230.4 126.05,-230.4 120.05,-230.4 114.05,-224.4 114.05,-218.4 114.05,-218.4 114.05,-200.8 114.05,-200.8 114.05,-194.8 120.05,-188.8 126.05,-188.8 126.05,-188.8 191.16,-188.8 191.16,-188.8 197.16,-188.8 203.16,-194.8 203.16,-200.8 203.16,-200.8 203.16,-218.4 203.16,-218.4 203.16,-224.4 197.16,-230.4 191.16,-230.4"/>
<text text-anchor="middle" x="158.61" y="-213.8" font-family="Times,serif" font-size="14.00">GO:0005773</text>
<text text-anchor="middle" x="158.61" y="-197" font-family="Times,serif" font-size="14.00">vacuole</text>
</g>
<!-- GO:0005773\nvacuole&#45;&#45;GO:0000323\nlytic vacuole -->
<g id="edge4" class="edge">
<title>GO:0005773\nvacuole&#45;&#45;GO:0000323\nlytic vacuole</title>
<path fill="none" stroke="#8470ff" d="M158.61,-177.25C158.61,-163.68 158.61,-148.19 158.61,-136.21"/>
<polygon fill="#8470ff" stroke="#8470ff" points="155.11,-177.04 158.61,-187.04 162.11,-177.04 155.11,-177.04"/>
<text text-anchor="middle" x="169.88" y="-158.2" font-family="Times,serif" font-size="14.00">is_a</text>
</g>
<!-- GO:0043231\nintracellular membrane&#45;bounded organelle -->
<g id="node8" class="node">
<title>GO:0043231\nintracellular membrane&#45;bounded organelle</title>
<path fill="plum" stroke="mediumseagreen" d="M273.94,-324.8C273.94,-324.8 43.27,-324.8 43.27,-324.8 37.27,-324.8 31.27,-318.8 31.27,-312.8 31.27,-312.8 31.27,-295.2 31.27,-295.2 31.27,-289.2 37.27,-283.2 43.27,-283.2 43.27,-283.2 273.94,-283.2 273.94,-283.2 279.94,-283.2 285.94,-289.2 285.94,-295.2 285.94,-295.2 285.94,-312.8 285.94,-312.8 285.94,-318.8 279.94,-324.8 273.94,-324.8"/>
<text text-anchor="middle" x="158.61" y="-308.2" font-family="Times,serif" font-size="14.00">GO:0043231</text>
<text text-anchor="middle" x="158.61" y="-291.4" font-family="Times,serif" font-size="14.00">intracellular membrane&#45;bounded organelle</text>
</g>
<!-- GO:0043229\nintracellular organelle&#45;&#45;GO:0043231\nintracellular membrane&#45;bounded organelle -->
<g id="edge5" class="edge">
<title>GO:0043229\nintracellular organelle&#45;&#45;GO:0043231\nintracellular membrane&#45;bounded organelle</title>
<path fill="none" stroke="#8470ff" d="M96.67,-369.3C110.44,-355 126.86,-337.96 139.33,-325.01"/>
<polygon fill="#8470ff" stroke="#8470ff" points="94.38,-366.63 89.97,-376.26 99.43,-371.49 94.38,-366.63"/>
<text text-anchor="middle" x="133.35" y="-347" font-family="Times,serif" font-size="14.00">is_a</text>
</g>
<!-- GO:0043231\nintracellular membrane&#45;bounded organelle&#45;&#45;GO:0005773\nvacuole -->
<g id="edge8" class="edge">
<title>GO:0043231\nintracellular membrane&#45;bounded organelle&#45;&#45;GO:0005773\nvacuole</title>
<path fill="none" stroke="#8470ff" d="M158.61,-271.65C158.61,-258.08 158.61,-242.59 158.61,-230.61"/>
<polygon fill="#8470ff" stroke="#8470ff" points="155.11,-271.44 158.61,-281.44 162.11,-271.44 155.11,-271.44"/>
<text text-anchor="middle" x="169.88" y="-252.6" font-family="Times,serif" font-size="14.00">is_a</text>
</g>
<!-- GO:0043227\nmembrane&#45;bounded organelle&#45;&#45;GO:0043231\nintracellular membrane&#45;bounded organelle -->
<g id="edge9" class="edge">
<title>GO:0043227\nmembrane&#45;bounded organelle&#45;&#45;GO:0043231\nintracellular membrane&#45;bounded organelle</title>
<path fill="none" stroke="#8470ff" d="M221.24,-369.3C207.31,-355 190.71,-337.96 178.1,-325.01"/>
<polygon fill="#8470ff" stroke="#8470ff" points="218.54,-371.54 228.02,-376.27 223.55,-366.66 218.54,-371.54"/>
<text text-anchor="middle" x="222.94" y="-347" font-family="Times,serif" font-size="14.00">is_a</text>
</g>
</g>
</svg>
