<?xml version="1.0" encoding="UTF-8" standalone="no"?>
<!DOCTYPE svg PUBLIC "-//W3C//DTD SVG 1.1//EN"
 "http://www.w3.org/Graphics/SVG/1.1/DTD/svg11.dtd">
<!-- Generated by graphviz version 12.1.0 (20240811.2233)
 -->
<!-- Title: GO tree Pages: 1 -->
<svg width="845pt" height="522pt"
 viewBox="0.00 0.00 844.90 521.60" xmlns="http://www.w3.org/2000/svg" xmlns:xlink="http://www.w3.org/1999/xlink">
<g id="graph0" class="graph" transform="scale(1 1) rotate(0) translate(4 517.6)">
<title>GO tree</title>
<polygon fill="white" stroke="none" points="-4,4 -4,-517.6 840.9,-517.6 840.9,4 -4,4"/>
<!-- GO:0008150\nbiological_process -->
<g id="node1" class="node">
<title>GO:0008150\nbiological_process</title>
<path fill="plum" stroke="mediumseagreen" d="M327.37,-513.6C327.37,-513.6 230.39,-513.6 230.39,-513.6 224.39,-513.6 218.39,-507.6 218.39,-501.6 218.39,-501.6 218.39,-484 218.39,-484 218.39,-478 224.39,-472 230.39,-472 230.39,-472 327.37,-472 327.37,-472 333.37,-472 339.37,-478 339.37,-484 339.37,-484 339.37,-501.6 339.37,-501.6 339.37,-507.6 333.37,-513.6 327.37,-513.6"/>
<text text-anchor="middle" x="278.88" y="-497" font-family="Times,serif" font-size="14.00">GO:0008150</text>
<text text-anchor="middle" x="278.88" y="-480.2" font-family="Times,serif" font-size="14.00">biological_process</text>
</g>
<!-- GO:0002376\nimmune system process -->
<g id="node2" class="node">
<title>GO:0002376\nimmune system process</title>
<path fill="plum" stroke="mediumseagreen" d="M137.76,-419.2C137.76,-419.2 12,-419.2 12,-419.2 6,-419.2 0,-413.2 0,-407.2 0,-407.2 0,-389.6 0,-389.6 0,-383.6 6,-377.6 12,-377.6 12,-377.6 137.76,-377.6 137.76,-377.6 143.76,-377.6 149.76,-383.6 149.76,-389.6 149.76,-389.6 149.76,-407.2 149.76,-407.2 149.76,-413.2 143.76,-419.2 137.76,-419.2"/>
<text text-anchor="middle" x="74.88" y="-402.6" font-family="Times,serif" font-size="14.00">GO:0002376</text>
<text text-anchor="middle" x="74.88" y="-385.8" font-family="Times,serif" font-size="14.00">immune system process</text>
</g>
<!-- GO:0008150\nbiological_process&#45;&#45;GO:0002376\nimmune system process -->
<g id="edge1" class="edge">
<title>GO:0008150\nbiological_process&#45;&#45;GO:0002376\nimmune system process</title>
<path fill="none" stroke="#8470ff" d="M223.81,-466.86C191.12,-452.05 150.21,-433.52 119.54,-419.63"/>
<polygon fill="#8470ff" stroke="#8470ff" points="222.18,-469.96 232.73,-470.9 225.07,-463.58 222.18,-469.96"/>
<text text-anchor="middle" x="206.43" y="-441.4" font-family="Times,serif" font-size="14.00">is_a</text>
</g>
<!-- GO:0050896\nresponse to stimulus -->
<g id="node3" class="node">
<title>GO:0050896\nresponse to stimulus</title>
<path fill="plum" stroke="mediumseagreen" d="M286.04,-419.2C286.04,-419.2 179.71,-419.2 179.71,-419.2 173.71,-419.2 167.71,-413.2 167.71,-407.2 167.71,-407.2 167.71,-389.6 167.71,-389.6 167.71,-383.6 173.71,-377.6 179.71,-377.6 179.71,-377.6 286.04,-377.6 286.04,-377.6 292.04,-377.6 298.04,-383.6 298.04,-389.6 298.04,-389.6 298.04,-407.2 298.04,-407.2 298.04,-413.2 292.04,-419.2 286.04,-419.2"/>
<text text-anchor="middle" x="232.88" y="-402.6" font-family="Times,serif" font-size="14.00">GO:0050896</text>
<text text-anchor="middle" x="232.88" y="-385.8" font-family="Times,serif" font-size="14.00">response to stimulus</text>
</g>
<!-- GO:0008150\nbiological_process&#45;&#45;GO:0050896\nresponse to stimulus -->
<g id="edge2" class="edge">
<title>GO:0008150\nbiological_process&#45;&#45;GO:0050896\nresponse to stimulus</title>
<path fill="none" stroke="#8470ff" d="M263.88,-461.68C256.98,-447.82 248.99,-431.75 242.84,-419.41"/>
<polygon fill="#8470ff" stroke="#8470ff" points="260.63,-463 268.22,-470.4 266.9,-459.88 260.63,-463"/>
<text text-anchor="middle" x="271.28" y="-441.4" font-family="Times,serif" font-size="14.00">is_a</text>
</g>
<!-- GO:0009987\ncellular process -->
<g id="node4" class="node">
<title>GO:0009987\ncellular process</title>
<path fill="beige" stroke="mediumseagreen" d="M407.61,-419.2C407.61,-419.2 328.15,-419.2 328.15,-419.2 322.15,-419.2 316.15,-413.2 316.15,-407.2 316.15,-407.2 316.15,-389.6 316.15,-389.6 316.15,-383.6 322.15,-377.6 328.15,-377.6 328.15,-377.6 407.61,-377.6 407.61,-377.6 413.61,-377.6 419.61,-383.6 419.61,-389.6 419.61,-389.6 419.61,-407.2 419.61,-407.2 419.61,-413.2 413.61,-419.2 407.61,-419.2"/>
<text text-anchor="middle" x="367.88" y="-402.6" font-family="Times,serif" font-size="14.00">GO:0009987</text>
<text text-anchor="middle" x="367.88" y="-385.8" font-family="Times,serif" font-size="14.00">cellular process</text>
</g>
<!-- GO:0008150\nbiological_process&#45;&#45;GO:0009987\ncellular process -->
<g id="edge3" class="edge">
<title>GO:0008150\nbiological_process&#45;&#45;GO:0009987\ncellular process</title>
<path fill="none" stroke="#8470ff" d="M305.94,-463.7C319.72,-449.4 336.13,-432.36 348.61,-419.41"/>
<polygon fill="#8470ff" stroke="#8470ff" points="303.66,-461.03 299.24,-470.66 308.7,-465.89 303.66,-461.03"/>
<text text-anchor="middle" x="342.63" y="-441.4" font-family="Times,serif" font-size="14.00">is_a</text>
</g>
<!-- GO:0032501\nmulticellular organismal process -->
<g id="node5" class="node">
<title>GO:0032501\nmulticellular organismal process</title>
<path fill="beige" stroke="mediumseagreen" d="M624.24,-419.2C624.24,-419.2 449.52,-419.2 449.52,-419.2 443.52,-419.2 437.52,-413.2 437.52,-407.2 437.52,-407.2 437.52,-389.6 437.52,-389.6 437.52,-383.6 443.52,-377.6 449.52,-377.6 449.52,-377.6 624.24,-377.6 624.24,-377.6 630.24,-377.6 636.24,-383.6 636.24,-389.6 636.24,-389.6 636.24,-407.2 636.24,-407.2 636.24,-413.2 630.24,-419.2 624.24,-419.2"/>
<text text-anchor="middle" x="536.88" y="-402.6" font-family="Times,serif" font-size="14.00">GO:0032501</text>
<text text-anchor="middle" x="536.88" y="-385.8" font-family="Times,serif" font-size="14.00">multicellular organismal process</text>
</g>
<!-- GO:0008150\nbiological_process&#45;&#45;GO:0032501\nmulticellular organismal process -->
<g id="edge4" class="edge">
<title>GO:0008150\nbiological_process&#45;&#45;GO:0032501\nmulticellular organismal process</title>
<path fill="none" stroke="#8470ff" d="M346.12,-467.72C387.85,-452.78 440.85,-433.79 480.39,-419.63"/>
<polygon fill="#8470ff" stroke="#8470ff" points="345.16,-464.35 336.92,-471.01 347.52,-470.94 345.16,-464.35"/>
<text text-anchor="middle" x="442.26" y="-441.4" font-family="Times,serif" font-size="14.00">is_a</text>
</g>
<!-- GO:0006955\nimmune response -->
<g id="node6" class="node">
<title>GO:0006955\nimmune response</title>
<path fill="plum" stroke="mediumseagreen" d="M241.06,-324.8C241.06,-324.8 150.69,-324.8 150.69,-324.8 144.69,-324.8 138.69,-318.8 138.69,-312.8 138.69,-312.8 138.69,-295.2 138.69,-295.2 138.69,-289.2 144.69,-283.2 150.69,-283.2 150.69,-283.2 241.06,-283.2 241.06,-283.2 247.06,-283.2 253.06,-289.2 253.06,-295.2 253.06,-295.2 253.06,-312.8 253.06,-312.8 253.06,-318.8 247.06,-324.8 241.06,-324.8"/>
<text text-anchor="middle" x="195.88" y="-308.2" font-family="Times,serif" font-size="14.00">GO:0006955</text>
<text text-anchor="middle" x="195.88" y="-291.4" font-family="Times,serif" font-size="14.00">immune response</text>
</g>
<!-- GO:0002376\nimmune system process&#45;&#45;GO:0006955\nimmune response -->
<g id="edge5" class="edge">
<title>GO:0002376\nimmune system process&#45;&#45;GO:0006955\nimmune response</title>
<path fill="none" stroke="#8470ff" d="M110.34,-370.32C129.23,-355.9 152.06,-338.46 169.39,-325.23"/>
<polygon fill="#8470ff" stroke="#8470ff" points="108.46,-367.35 102.64,-376.2 112.71,-372.92 108.46,-367.35"/>
<text text-anchor="middle" x="157.49" y="-347" font-family="Times,serif" font-size="14.00">is_a</text>
</g>
<!-- GO:0045321\nleukocyte activation -->
<g id="node7" class="node">
<title>GO:0045321\nleukocyte activation</title>
<path fill="beige" stroke="mediumseagreen" d="M231.44,-230.4C231.44,-230.4 126.32,-230.4 126.32,-230.4 120.32,-230.4 114.32,-224.4 114.32,-218.4 114.32,-218.4 114.32,-200.8 114.32,-200.8 114.32,-194.8 120.32,-188.8 126.32,-188.8 126.32,-188.8 231.44,-188.8 231.44,-188.8 237.44,-188.8 243.44,-194.8 243.44,-200.8 243.44,-200.8 243.44,-218.4 243.44,-218.4 243.44,-224.4 237.44,-230.4 231.44,-230.4"/>
<text text-anchor="middle" x="178.88" y="-213.8" font-family="Times,serif" font-size="14.00">GO:0045321</text>
<text text-anchor="middle" x="178.88" y="-197" font-family="Times,serif" font-size="14.00">leukocyte activation</text>
</g>
<!-- GO:0002376\nimmune system process&#45;&#45;GO:0045321\nleukocyte activation -->
<g id="edge6" class="edge">
<title>GO:0002376\nimmune system process&#45;&#45;GO:0045321\nleukocyte activation</title>
<path fill="none" stroke="#8470ff" d="M79.45,-365.96C83.92,-342.04 92.33,-308.95 107.33,-283.2 119.18,-262.86 138.03,-244.06 153.4,-230.69"/>
<polygon fill="#8470ff" stroke="#8470ff" points="76.01,-365.28 77.76,-375.73 82.91,-366.48 76.01,-365.28"/>
<text text-anchor="middle" x="118.6" y="-299.8" font-family="Times,serif" font-size="14.00">is_a</text>
</g>
<!-- GO:0050896\nresponse to stimulus&#45;&#45;GO:0006955\nimmune response -->
<g id="edge7" class="edge">
<title>GO:0050896\nresponse to stimulus&#45;&#45;GO:0006955\nimmune response</title>
<path fill="none" stroke="#8470ff" d="M220.65,-366.87C215.14,-353.1 208.79,-337.23 203.89,-325.01"/>
<polygon fill="#8470ff" stroke="#8470ff" points="217.32,-367.96 224.29,-375.95 223.82,-365.36 217.32,-367.96"/>
<text text-anchor="middle" x="228.97" y="-347" font-family="Times,serif" font-size="14.00">is_a</text>
</g>
<!-- GO:0001775\ncell activation -->
<g id="node14" class="node">
<title>GO:0001775\ncell activation</title>
<path fill="beige" stroke="mediumseagreen" d="M403.33,-324.8C403.33,-324.8 332.43,-324.8 332.43,-324.8 326.43,-324.8 320.43,-318.8 320.43,-312.8 320.43,-312.8 320.43,-295.2 320.43,-295.2 320.43,-289.2 326.43,-283.2 332.43,-283.2 332.43,-283.2 403.33,-283.2 403.33,-283.2 409.33,-283.2 415.33,-289.2 415.33,-295.2 415.33,-295.2 415.33,-312.8 415.33,-312.8 415.33,-318.8 409.33,-324.8 403.33,-324.8"/>
<text text-anchor="middle" x="367.88" y="-308.2" font-family="Times,serif" font-size="14.00">GO:0001775</text>
<text text-anchor="middle" x="367.88" y="-291.4" font-family="Times,serif" font-size="14.00">cell activation</text>
</g>
<!-- GO:0009987\ncellular process&#45;&#45;GO:0001775\ncell activation -->
<g id="edge13" class="edge">
<title>GO:0009987\ncellular process&#45;&#45;GO:0001775\ncell activation</title>
<path fill="none" stroke="#8470ff" d="M367.88,-366.05C367.88,-352.48 367.88,-336.99 367.88,-325.01"/>
<polygon fill="#8470ff" stroke="#8470ff" points="364.38,-365.84 367.88,-375.84 371.38,-365.84 364.38,-365.84"/>
<text text-anchor="middle" x="379.16" y="-347" font-family="Times,serif" font-size="14.00">is_a</text>
</g>
<!-- GO:0032501\nmulticellular organismal process&#45;&#45;GO:0001775\ncell activation -->
<g id="edge15" class="edge">
<title>GO:0032501\nmulticellular organismal process&#45;&#45;GO:0001775\ncell activation</title>
<path fill="none" stroke="#8470ff" d="M489.85,-371.68C463.01,-357.01 429.85,-338.88 404.88,-325.23"/>
<polygon fill="#8470ff" stroke="#8470ff" points="488.01,-374.67 498.46,-376.4 491.37,-368.53 488.01,-374.67"/>
<text text-anchor="middle" x="478.79" y="-347" font-family="Times,serif" font-size="14.00">is_a</text>
</g>
<!-- GO:0046649\nlymphocyte activation -->
<g id="node13" class="node">
<title>GO:0046649\nlymphocyte activation</title>
<path fill="beige" stroke="mediumseagreen" d="M237.28,-136C237.28,-136 120.48,-136 120.48,-136 114.48,-136 108.48,-130 108.48,-124 108.48,-124 108.48,-106.4 108.48,-106.4 108.48,-100.4 114.48,-94.4 120.48,-94.4 120.48,-94.4 237.28,-94.4 237.28,-94.4 243.28,-94.4 249.28,-100.4 249.28,-106.4 249.28,-106.4 249.28,-124 249.28,-124 249.28,-130 243.28,-136 237.28,-136"/>
<text text-anchor="middle" x="178.88" y="-119.4" font-family="Times,serif" font-size="14.00">GO:0046649</text>
<text text-anchor="middle" x="178.88" y="-102.6" font-family="Times,serif" font-size="14.00">lymphocyte activation</text>
</g>
<!-- GO:0045321\nleukocyte activation&#45;&#45;GO:0046649\nlymphocyte activation -->
<g id="edge12" class="edge">
<title>GO:0045321\nleukocyte activation&#45;&#45;GO:0046649\nlymphocyte activation</title>
<path fill="none" stroke="#8470ff" d="M178.88,-177.25C178.88,-163.68 178.88,-148.19 178.88,-136.21"/>
<polygon fill="#8470ff" stroke="#8470ff" points="175.38,-177.04 178.88,-187.04 182.38,-177.04 175.38,-177.04"/>
<text text-anchor="middle" x="190.16" y="-158.2" font-family="Times,serif" font-size="14.00">is_a</text>
</g>
<!-- GO:0042113\nB cell activation -->
<g id="node8" class="node">
<title>GO:0042113\nB cell activation</title>
<path fill="plum" stroke="mediumseagreen" d="M220.75,-41.6C220.75,-41.6 137.01,-41.6 137.01,-41.6 131.01,-41.6 125.01,-35.6 125.01,-29.6 125.01,-29.6 125.01,-12 125.01,-12 125.01,-6 131.01,0 137.01,0 137.01,0 220.75,0 220.75,0 226.75,0 232.75,-6 232.75,-12 232.75,-12 232.75,-29.6 232.75,-29.6 232.75,-35.6 226.75,-41.6 220.75,-41.6"/>
<text text-anchor="middle" x="178.88" y="-25" font-family="Times,serif" font-size="14.00">GO:0042113</text>
<text text-anchor="middle" x="178.88" y="-8.2" font-family="Times,serif" font-size="14.00">B cell activation</text>
</g>
<!-- GO:0009897\nexternal side of plasma membrane -->
<g id="node9" class="node">
<title>GO:0009897\nexternal side of plasma membrane</title>
<path fill="plum" stroke="mediumseagreen" d="M824.9,-230.4C824.9,-230.4 640.86,-230.4 640.86,-230.4 634.86,-230.4 628.86,-224.4 628.86,-218.4 628.86,-218.4 628.86,-200.8 628.86,-200.8 628.86,-194.8 634.86,-188.8 640.86,-188.8 640.86,-188.8 824.9,-188.8 824.9,-188.8 830.9,-188.8 836.9,-194.8 836.9,-200.8 836.9,-200.8 836.9,-218.4 836.9,-218.4 836.9,-224.4 830.9,-230.4 824.9,-230.4"/>
<text text-anchor="middle" x="732.88" y="-213.8" font-family="Times,serif" font-size="14.00">GO:0009897</text>
<text text-anchor="middle" x="732.88" y="-197" font-family="Times,serif" font-size="14.00">external side of plasma membrane</text>
</g>
<!-- GO:0110165\ncellular anatomical entity -->
<g id="node10" class="node">
<title>GO:0110165\ncellular anatomical entity</title>
<path fill="plum" stroke="mediumseagreen" d="M800.01,-419.2C800.01,-419.2 665.74,-419.2 665.74,-419.2 659.74,-419.2 653.74,-413.2 653.74,-407.2 653.74,-407.2 653.74,-389.6 653.74,-389.6 653.74,-383.6 659.74,-377.6 665.74,-377.6 665.74,-377.6 800.01,-377.6 800.01,-377.6 806.01,-377.6 812.01,-383.6 812.01,-389.6 812.01,-389.6 812.01,-407.2 812.01,-407.2 812.01,-413.2 806.01,-419.2 800.01,-419.2"/>
<text text-anchor="middle" x="732.88" y="-402.6" font-family="Times,serif" font-size="14.00">GO:0110165</text>
<text text-anchor="middle" x="732.88" y="-385.8" font-family="Times,serif" font-size="14.00">cellular anatomical entity</text>
</g>
<!-- GO:0098552\nside of membrane -->
<g id="node11" class="node">
<title>GO:0098552\nside of membrane</title>
<path fill="plum" stroke="mediumseagreen" d="M779.03,-324.8C779.03,-324.8 686.73,-324.8 686.73,-324.8 680.73,-324.8 674.73,-318.8 674.73,-312.8 674.73,-312.8 674.73,-295.2 674.73,-295.2 674.73,-289.2 680.73,-283.2 686.73,-283.2 686.73,-283.2 779.03,-283.2 779.03,-283.2 785.03,-283.2 791.03,-289.2 791.03,-295.2 791.03,-295.2 791.03,-312.8 791.03,-312.8 791.03,-318.8 785.03,-324.8 779.03,-324.8"/>
<text text-anchor="middle" x="732.88" y="-308.2" font-family="Times,serif" font-size="14.00">GO:0098552</text>
<text text-anchor="middle" x="732.88" y="-291.4" font-family="Times,serif" font-size="14.00">side of membrane</text>
</g>
<!-- GO:0110165\ncellular anatomical entity&#45;&#45;GO:0098552\nside of membrane -->
<g id="edge8" class="edge">
<title>GO:0110165\ncellular anatomical entity&#45;&#45;GO:0098552\nside of membrane</title>
<path fill="none" stroke="#8470ff" d="M732.88,-366.05C732.88,-352.48 732.88,-336.99 732.88,-325.01"/>
<polygon fill="#8470ff" stroke="#8470ff" points="729.38,-365.84 732.88,-375.84 736.38,-365.84 729.38,-365.84"/>
<text text-anchor="middle" x="744.16" y="-347" font-family="Times,serif" font-size="14.00">is_a</text>
</g>
<!-- GO:0098552\nside of membrane&#45;&#45;GO:0009897\nexternal side of plasma membrane -->
<g id="edge10" class="edge">
<title>GO:0098552\nside of membrane&#45;&#45;GO:0009897\nexternal side of plasma membrane</title>
<path fill="none" stroke="#8470ff" d="M732.88,-271.65C732.88,-258.08 732.88,-242.59 732.88,-230.61"/>
<polygon fill="#8470ff" stroke="#8470ff" points="729.38,-271.44 732.88,-281.44 736.38,-271.44 729.38,-271.44"/>
<text text-anchor="middle" x="744.16" y="-252.6" font-family="Times,serif" font-size="14.00">is_a</text>
</g>
<!-- GO:0005575\ncellular_component -->
<g id="node12" class="node">
<title>GO:0005575\ncellular_component</title>
<path fill="plum" stroke="mediumseagreen" d="M784.47,-513.6C784.47,-513.6 681.29,-513.6 681.29,-513.6 675.29,-513.6 669.29,-507.6 669.29,-501.6 669.29,-501.6 669.29,-484 669.29,-484 669.29,-478 675.29,-472 681.29,-472 681.29,-472 784.47,-472 784.47,-472 790.47,-472 796.47,-478 796.47,-484 796.47,-484 796.47,-501.6 796.47,-501.6 796.47,-507.6 790.47,-513.6 784.47,-513.6"/>
<text text-anchor="middle" x="732.88" y="-497" font-family="Times,serif" font-size="14.00">GO:0005575</text>
<text text-anchor="middle" x="732.88" y="-480.2" font-family="Times,serif" font-size="14.00">cellular_component</text>
</g>
<!-- GO:0005575\ncellular_component&#45;&#45;GO:0110165\ncellular anatomical entity -->
<g id="edge9" class="edge">
<title>GO:0005575\ncellular_component&#45;&#45;GO:0110165\ncellular anatomical entity</title>
<path fill="none" stroke="#8470ff" d="M732.88,-460.45C732.88,-446.88 732.88,-431.39 732.88,-419.41"/>
<polygon fill="#8470ff" stroke="#8470ff" points="729.38,-460.24 732.88,-470.24 736.38,-460.24 729.38,-460.24"/>
<text text-anchor="middle" x="744.16" y="-441.4" font-family="Times,serif" font-size="14.00">is_a</text>
</g>
<!-- GO:0046649\nlymphocyte activation&#45;&#45;GO:0042113\nB cell activation -->
<g id="edge11" class="edge">
<title>GO:0046649\nlymphocyte activation&#45;&#45;GO:0042113\nB cell activation</title>
<path fill="none" stroke="#8470ff" d="M178.88,-82.85C178.88,-69.28 178.88,-53.79 178.88,-41.81"/>
<polygon fill="#8470ff" stroke="#8470ff" points="175.38,-82.64 178.88,-92.64 182.38,-82.64 175.38,-82.64"/>
<text text-anchor="middle" x="190.16" y="-63.8" font-family="Times,serif" font-size="14.00">is_a</text>
</g>
<!-- GO:0001775\ncell activation&#45;&#45;GO:0045321\nleukocyte activation -->
<g id="edge14" class="edge">
<title>GO:0001775\ncell activation&#45;&#45;GO:0045321\nleukocyte activation</title>
<path fill="none" stroke="#8470ff" d="M316.07,-277.67C285.92,-262.93 248.43,-244.6 220.26,-230.83"/>
<polygon fill="#8470ff" stroke="#8470ff" points="314.52,-280.81 325.04,-282.06 317.6,-274.52 314.52,-280.81"/>
<text text-anchor="middle" x="301.58" y="-252.6" font-family="Times,serif" font-size="14.00">is_a</text>
</g>
</g>
</svg>
